<svg width="64" height="64" viewBox="0 0 64 64" fill="none" xmlns="http://www.w3.org/2000/svg">
<path d="M18.1929 9.18048C17.6642 9.18011 17.1405 9.28399 16.6519 9.48617C16.1633 9.68836 15.7193 9.98488 15.3454 10.3588C14.9715 10.7327 14.675 11.1766 14.4728 11.6652C14.2706 12.1539 14.1667 12.6775 14.1671 13.2063V33.9445C14.1664 34.9185 14.3576 35.8831 14.7299 36.7831C15.1022 37.6832 15.6483 38.501 16.3369 39.1898C17.0254 39.8787 17.843 40.425 18.7429 40.7977C19.6428 41.1703 20.6073 41.3619 21.5813 41.3616H26.3352C27.3092 41.3619 28.2737 41.1703 29.1736 40.7977C30.0735 40.425 30.8911 39.8787 31.5797 39.1898C32.2683 38.501 32.8143 37.6832 33.1866 36.7831C33.5589 35.8831 33.7502 34.9185 33.7494 33.9445V13.2063C33.7494 10.9795 31.9419 9.18048 29.7236 9.18048H18.1929ZM12.0423 13.2063C12.0423 9.8066 14.7904 7.05566 18.1929 7.05566H29.7208C33.112 7.05566 35.8714 9.80376 35.8714 13.2063V33.9445C35.8722 35.1976 35.626 36.4384 35.1469 37.5963C34.6678 38.7541 33.9652 39.8061 33.0794 40.6923C32.1935 41.5785 31.1416 42.2813 29.9839 42.7608C28.8262 43.2402 27.5854 43.4868 26.3324 43.4864H21.5813C20.3283 43.4868 19.0875 43.2402 17.9298 42.7608C16.7721 42.2813 15.7203 41.5785 14.8344 40.6923C13.9485 39.8061 13.2459 38.7541 12.7668 37.5963C12.2878 36.4384 12.0416 35.1976 12.0423 33.9445V13.2063Z" fill="#C01C20"/>
<path d="M46.1045 20.1452C46.1045 18.9496 47.0706 17.958 48.2916 17.958H49.7677C50.9632 17.958 51.9576 18.9241 51.9576 20.1452V24.1398C51.9576 24.4274 51.901 24.7122 51.7909 24.9779C51.6809 25.2436 51.5196 25.485 51.3162 25.6884C51.1129 25.8917 50.8714 26.053 50.6057 26.1631C50.34 26.2731 50.0553 26.3298 49.7677 26.3298H48.2916C48.0037 26.3309 47.7184 26.275 47.4522 26.1654C47.186 26.0557 46.9441 25.8945 46.7406 25.6909C46.537 25.4873 46.3757 25.2454 46.2661 24.9792C46.1564 24.713 46.1005 24.4277 46.1016 24.1398V20.1452H46.1045ZM48.2463 20.0998C48.2406 20.1059 48.2361 20.113 48.2332 20.1208C48.2303 20.1286 48.229 20.1368 48.2293 20.1452V24.1398L48.2321 24.1681L48.2435 24.188C48.2492 24.1931 48.256 24.1969 48.2633 24.1993L48.2916 24.205H49.7677C49.7762 24.2051 49.7847 24.2034 49.7925 24.2C49.8003 24.1966 49.8073 24.1915 49.813 24.1851C49.8192 24.1793 49.8242 24.1723 49.8276 24.1645C49.831 24.1567 49.8328 24.1483 49.8328 24.1398V20.1452C49.8335 20.1368 49.8323 20.1284 49.8294 20.1206C49.8265 20.1127 49.8218 20.1057 49.8158 20.0998C49.8095 20.0938 49.8019 20.0891 49.7936 20.0862C49.7853 20.0832 49.7764 20.0821 49.7677 20.0828H48.2916C48.2833 20.0823 48.275 20.0836 48.2671 20.0865C48.2593 20.0894 48.2522 20.094 48.2463 20.0998Z" fill="#C01C20"/>
<path d="M47.9177 17.3634C48.116 17.5617 48.2293 17.8337 48.2293 18.117V19.5732C48.2293 19.855 48.1174 20.1252 47.9181 20.3244C47.7189 20.5237 47.4487 20.6356 47.1669 20.6356C46.8851 20.6356 46.6149 20.5237 46.4157 20.3244C46.2164 20.1252 46.1045 19.855 46.1045 19.5732V19.2389C43.719 19.5052 42.3761 20.6356 41.5715 22.0097C40.6026 23.667 40.3477 25.806 40.3477 27.6249V49.5756C40.3085 51.6435 39.4595 53.6134 37.9833 55.0619C36.5071 56.5104 34.5214 57.3219 32.4532 57.3219C30.385 57.3219 28.3994 56.5104 26.9232 55.0619C25.447 53.6134 24.598 51.6435 24.5588 49.5756V42.4249C24.5588 42.1432 24.6708 41.8729 24.87 41.6737C25.0692 41.4744 25.3395 41.3625 25.6212 41.3625C25.903 41.3625 26.1732 41.4744 26.3725 41.6737C26.5717 41.8729 26.6837 42.1432 26.6837 42.4249V49.5756C26.7171 51.0837 27.3396 52.5187 28.418 53.5735C29.4964 54.6282 30.9448 55.2188 32.4532 55.2188C33.9617 55.2188 35.4101 54.6282 36.4885 53.5735C37.5669 52.5187 38.1894 51.0837 38.2228 49.5756V27.622C38.2228 25.6785 38.4806 23.0806 39.7385 20.9331C41.0503 18.6949 43.3734 17.0688 47.1612 17.0518C47.4445 17.0518 47.7165 17.1622 47.9177 17.3606V17.3634Z" fill="#C01C20"/>
<path d="M47.1529 23.5332C47.7393 23.5332 48.2153 24.0092 48.2153 24.5956V26.083C48.2153 26.3623 48.1053 26.6304 47.9091 26.8293C47.7129 27.0281 47.4463 27.1417 47.167 27.1454C46.4503 27.1567 45.6088 27.2729 44.9686 27.7035C44.4019 28.0831 43.8297 28.8169 43.8297 30.4714V49.8923C43.7636 52.8353 42.5482 55.6355 40.4434 57.6936C38.3387 59.7517 35.5119 60.904 32.5681 60.904C29.6244 60.904 26.7976 59.7517 24.6928 57.6936C22.5881 55.6355 21.3726 52.8353 21.3066 49.8923V42.4243C21.3066 42.1425 21.4185 41.8723 21.6178 41.673C21.817 41.4738 22.0872 41.3619 22.369 41.3619C22.6508 41.3619 22.921 41.4738 23.1202 41.673C23.3195 41.8723 23.4314 42.1425 23.4314 42.4243V49.8923C23.4908 52.2761 24.4794 54.5423 26.1864 56.2073C27.8934 57.8723 30.1836 58.8043 32.5681 58.8043C34.9527 58.8043 37.2428 57.8723 38.9498 56.2073C40.6568 54.5423 41.6455 52.2761 41.7048 49.8923V30.4714C41.7048 28.2248 42.5406 26.7771 43.7815 25.9413C44.5351 25.4342 45.368 25.2047 46.0905 25.0999V24.5956C46.0905 24.0092 46.5664 23.5332 47.1529 23.5332Z" fill="#C01C20"/>
<path d="M42.821 30.9695H39.2825V28.8447H42.821V30.9695Z" fill="#C01C20"/>
<mask id="path-6-inside-1_128_369" fill="white">
<path d="M12.0423 9.64195C12.0423 7.6861 13.6278 6.10059 15.5837 6.10059H32.3297C34.2856 6.10059 35.8711 7.68611 35.8711 9.64195V36.4035C35.8711 40.3151 32.7001 43.4862 28.7884 43.4862H19.125C15.2134 43.4862 12.0423 40.3151 12.0423 36.4035V9.64195Z"/>
</mask>
<path d="M12.0423 9.64195C12.0423 7.6861 13.6278 6.10059 15.5837 6.10059H32.3297C34.2856 6.10059 35.8711 7.68611 35.8711 9.64195V36.4035C35.8711 40.3151 32.7001 43.4862 28.7884 43.4862H19.125C15.2134 43.4862 12.0423 40.3151 12.0423 36.4035V9.64195Z" stroke="#C01C20" stroke-width="8.49927" mask="url(#path-6-inside-1_128_369)"/>
<path d="M15.6321 9.94238L20.4401 17.0514H27.8773L32.6853 9.94238" stroke="#C01C20" stroke-width="2.83309"/>
<path d="M27.3981 23.4899C27.6282 23.4589 27.8376 23.4269 28.0274 23.3934C28.2241 23.3509 28.3877 23.3143 28.5186 23.2837C28.7835 23.2 28.8958 23.069 28.8552 22.8899C28.7942 22.7095 28.6306 22.6579 28.364 22.7345C28.2424 22.7624 28.097 22.8115 27.9279 22.8816C27.7587 22.9516 27.5513 23.0467 27.3068 23.1666C27.1724 23.2192 27.1228 23.2899 27.158 23.3791C27.1742 23.4732 27.2548 23.5105 27.3981 23.4903" fill="#C01C20"/>
<path d="M27.7736 22.6729C27.9345 22.5503 28.0671 22.4471 28.1728 22.3635C28.3778 22.1747 28.425 22.0078 28.3134 21.8628C28.1828 21.7252 28.013 21.7482 27.8029 21.9322C27.7043 22.0095 27.5931 22.1158 27.4691 22.2517C27.3451 22.3876 27.1969 22.5621 27.0254 22.7753C26.9255 22.8806 26.91 22.9663 26.9789 23.0318C27.033 23.1102 27.1215 23.1095 27.2431 23.0297C27.4384 22.9032 27.6151 22.7848 27.7729 22.6729" fill="#C01C20"/>
<path d="M27.4763 21.6775C27.5834 21.4186 27.5558 21.2472 27.3943 21.1635C27.2186 21.0946 27.0739 21.1883 26.9606 21.4444C26.9038 21.5566 26.8473 21.7008 26.7915 21.8768C26.7356 22.0531 26.6747 22.2747 26.6082 22.5409C26.5617 22.6788 26.5834 22.7631 26.6733 22.7931C26.7553 22.8408 26.8349 22.8025 26.912 22.6781C27.0364 22.4799 27.1466 22.297 27.2434 22.1283C27.3378 21.9485 27.4153 21.7984 27.4763 21.6771" fill="#C01C20"/>
<path d="M26.2679 20.9238C26.0798 20.9364 25.9878 21.0831 25.9923 21.3639C25.9875 21.4897 25.9964 21.6447 26.0195 21.828C26.0426 22.0116 26.0798 22.2384 26.1311 22.5084C26.1466 22.6534 26.2014 22.7203 26.2954 22.7088C26.3895 22.7172 26.446 22.6482 26.4635 22.5029C26.4935 22.2701 26.5169 22.0572 26.5341 21.8628C26.5445 21.6597 26.5517 21.4904 26.5565 21.3545C26.5455 21.074 26.4491 20.9304 26.2679 20.9238Z" fill="#C01C20"/>
<path d="M25.7814 21.9242C25.7056 21.7357 25.6419 21.5793 25.5892 21.4538C25.462 21.2044 25.3146 21.1155 25.1475 21.187C24.9822 21.2789 24.9602 21.4511 25.0814 21.7033C25.1296 21.8197 25.2027 21.9559 25.3001 22.1124C25.3976 22.2688 25.5261 22.4587 25.6856 22.6813C25.76 22.8061 25.8379 22.843 25.9181 22.7928C26.007 22.7601 26.0291 22.6737 25.9846 22.5343C25.9143 22.3106 25.8468 22.1075 25.781 21.9242" fill="#C01C20"/>
<path d="M25.1246 22.302C24.9772 22.1633 24.8539 22.0487 24.754 21.9581C24.5346 21.7863 24.3637 21.7685 24.2421 21.9051C24.1308 22.0588 24.1829 22.2243 24.3982 22.4013C24.4905 22.4859 24.6138 22.5783 24.7674 22.6783C24.9214 22.7783 25.1171 22.8953 25.3544 23.0291C25.4743 23.1103 25.5601 23.1107 25.6117 23.0309C25.6786 22.9633 25.6627 22.8755 25.5639 22.7682C25.4068 22.5953 25.2604 22.4403 25.1246 22.3023" fill="#C01C20"/>
<path d="M25.2798 23.1599C25.0656 23.0707 24.8682 22.9923 24.687 22.9254C24.4958 22.8627 24.336 22.8115 24.2071 22.7721C23.9367 22.7104 23.7745 22.7672 23.7211 22.9428C23.6846 23.1299 23.8007 23.2575 24.07 23.3261C24.1889 23.3634 24.3391 23.3944 24.5203 23.4195C24.7015 23.4446 24.9278 23.4669 25.1989 23.4867C25.3411 23.509 25.4193 23.4728 25.4328 23.378C25.4655 23.2885 25.4142 23.2157 25.2798 23.1603" fill="#C01C20"/>
<path d="M20.3696 22.9053L21.3561 26.0923H20.5628L20.3685 25.4362H19.3499L19.1526 26.0923H18.5049L19.5149 22.9053H20.3696ZM19.5267 24.8481H20.1942L19.8632 23.7296L19.5267 24.8481Z" fill="#C01C20"/>
<path d="M22.3809 24.2766V26.0933H21.7113V24.2766H21.4412V23.7348H21.7113C21.7144 23.492 21.7316 23.315 21.7633 23.2035C21.795 23.0923 21.8759 22.9934 22.0068 22.907C22.1377 22.8205 22.3155 22.7773 22.5401 22.7773C22.6324 22.7773 22.7385 22.7861 22.8587 22.8031V23.34C22.7602 23.3324 22.6786 23.3285 22.6142 23.3285C22.5205 23.3285 22.4581 23.3533 22.4271 23.4031C22.3961 23.4529 22.3809 23.5338 22.3809 23.646V23.7348H22.8033V24.2766H22.3809Z" fill="#C01C20"/>
<path d="M24.1087 23.6865C24.4639 23.6865 24.7408 23.8039 24.9399 24.0391C25.1391 24.2743 25.2386 24.5684 25.2386 24.9217C25.2386 25.275 25.1349 25.561 24.9282 25.7941C24.7215 26.0269 24.4467 26.1432 24.1039 26.1432C23.7612 26.1432 23.5062 26.0279 23.3071 25.7976C23.108 25.5673 23.0085 25.2715 23.0085 24.9102C23.0085 24.6593 23.0536 24.4468 23.1435 24.2715C23.2334 24.0966 23.3567 23.9552 23.5135 23.8478C23.6702 23.7402 23.8686 23.6865 24.1084 23.6865M24.1273 24.1416C23.9968 24.1416 23.8986 24.1924 23.8328 24.2945C23.7667 24.3963 23.7336 24.5994 23.7336 24.9029C23.7336 25.1816 23.7653 25.3812 23.8283 25.5028C23.891 25.6241 23.9892 25.6847 24.1229 25.6847C24.2393 25.6847 24.334 25.6332 24.406 25.5297C24.4784 25.4262 24.5142 25.2286 24.5142 24.9377C24.5142 24.628 24.4825 24.4179 24.4188 24.3074C24.355 24.197 24.2582 24.1416 24.1277 24.1416" fill="#C01C20"/>
<path d="M26.3395 26.0933H25.6722V23.7352H26.3023V24.1742C26.3994 23.847 26.5668 23.6836 26.8056 23.6836C26.8393 23.6836 26.881 23.686 26.9299 23.6906V24.3773C26.7901 24.3773 26.6809 24.3989 26.6034 24.4425C26.5255 24.486 26.4621 24.5644 26.4129 24.6769C26.3636 24.7898 26.3391 24.9421 26.3391 25.1334V26.0929L26.3395 26.0933Z" fill="#C01C20"/>
<path d="M29.408 25.0308H27.9075C27.9061 25.0726 27.9051 25.1095 27.9051 25.1406C27.9051 25.3085 27.9492 25.4353 28.0381 25.521C28.1266 25.6067 28.2324 25.6496 28.3553 25.6496C28.5848 25.6496 28.7222 25.5259 28.7684 25.2782L29.3919 25.3249C29.2179 25.8698 28.8648 26.1419 28.3323 26.1419C28.0997 26.1419 27.9027 26.0949 27.7401 26.0008C27.5775 25.9064 27.4439 25.7691 27.3381 25.5886C27.2327 25.4081 27.18 25.1918 27.18 24.9395C27.18 24.5646 27.2857 24.2615 27.4976 24.0312C27.7091 23.8009 27.9812 23.6855 28.3137 23.6855C28.6137 23.6855 28.871 23.7925 29.086 24.0064C29.3006 24.2204 29.408 24.5618 29.408 25.0305M27.9051 24.6266H28.7339C28.7126 24.303 28.581 24.1409 28.3391 24.1409C28.0804 24.1409 27.9358 24.303 27.9051 24.6266Z" fill="#C01C20"/>
</svg>
