<svg width="65" height="64" viewBox="0 0 65 64" fill="none" xmlns="http://www.w3.org/2000/svg">
<path d="M47.6674 54.4004H17.3353C17.0037 54.4004 16.7348 54.6692 16.7348 55.0009C16.7348 55.3325 17.0037 55.6014 17.3353 55.6014H47.6674C47.9991 55.6014 48.2679 55.3325 48.2679 55.0009C48.2679 54.6692 47.9991 54.4004 47.6674 54.4004Z" fill="#C61724"/>
<path d="M47.9017 34.5869H17.101C16.8988 34.5869 16.7348 34.7509 16.7348 34.9532C16.7348 35.1554 16.8988 35.3194 17.101 35.3194H47.9017C48.104 35.3194 48.2679 35.1554 48.2679 34.9532C48.2679 34.7509 48.104 34.5869 47.9017 34.5869Z" fill="#C61724"/>
<path d="M47.9017 44.4932H17.101C16.8988 44.4932 16.7348 44.6571 16.7348 44.8594C16.7348 45.0617 16.8988 45.2256 17.101 45.2256H47.9017C48.104 45.2256 48.2679 45.0617 48.2679 44.8594C48.2679 44.6571 48.104 44.4932 47.9017 44.4932Z" fill="#C61724"/>
<path d="M47.9017 24.6797H17.101C16.8988 24.6797 16.7348 24.8437 16.7348 25.0459C16.7348 25.2482 16.8988 25.4122 17.101 25.4122H47.9017C48.104 25.4122 48.2679 25.2482 48.2679 25.0459C48.2679 24.8437 48.104 24.6797 47.9017 24.6797Z" fill="#C61724"/>
<path d="M19.9149 6.84277H45.0877C47.6763 6.84277 49.7752 8.94172 49.7752 11.5303V57.501H15.2274V11.5303C15.2274 8.94172 17.3263 6.84277 19.9149 6.84277Z" stroke="#C01C20" stroke-width="3.95934"/>
<path d="M13.2479 60.2148H51.7548" stroke="#C01C20" stroke-width="2.63956"/>
<path d="M35.8214 15.0714C36.0434 15.0415 36.2454 15.0105 36.4285 14.9783C36.6183 14.9373 36.7761 14.902 36.9024 14.8724C37.1579 14.7917 37.2663 14.6654 37.227 14.4926C37.1682 14.3185 37.0104 14.2688 36.7532 14.3427C36.6359 14.3696 36.4957 14.417 36.3325 14.4845C36.1693 14.5521 35.9693 14.6439 35.7334 14.7595C35.6038 14.8102 35.5559 14.8785 35.5898 14.9645C35.6054 15.0552 35.6832 15.0912 35.8214 15.0717" fill="#C01C20"/>
<path d="M36.1836 14.2837C36.3388 14.1654 36.4668 14.0659 36.5688 13.9853C36.7665 13.8031 36.812 13.6421 36.7043 13.5023C36.5784 13.3695 36.4146 13.3917 36.2119 13.5692C36.1168 13.6438 36.0095 13.7463 35.8899 13.8774C35.7703 14.0085 35.6274 14.1768 35.4619 14.3825C35.3655 14.484 35.3506 14.5667 35.417 14.6299C35.4692 14.7055 35.5546 14.7049 35.6719 14.6279C35.8603 14.5059 36.0308 14.3916 36.183 14.2837" fill="#C01C20"/>
<path d="M35.8969 13.3236C36.0002 13.0738 35.9736 12.9085 35.8178 12.8278C35.6483 12.7613 35.5088 12.8517 35.3994 13.0987C35.3446 13.2069 35.2901 13.3461 35.2363 13.5158C35.1824 13.6859 35.1236 13.8996 35.0595 14.1564C35.0146 14.2895 35.0356 14.3709 35.1223 14.3998C35.2014 14.4458 35.2782 14.4088 35.3526 14.2889C35.4725 14.0976 35.5789 13.9212 35.6723 13.7585C35.7633 13.5851 35.8381 13.4402 35.8969 13.3232" fill="#C01C20"/>
<path d="M34.7312 12.5957C34.5497 12.6078 34.461 12.7493 34.4653 13.0202C34.4607 13.1415 34.4693 13.2911 34.4916 13.4679C34.5138 13.645 34.5497 13.8638 34.5992 14.1243C34.6142 14.2641 34.667 14.3287 34.7578 14.3176C34.8485 14.3256 34.903 14.2591 34.9199 14.1189C34.9488 13.8944 34.9714 13.6891 34.988 13.5015C34.998 13.3056 35.005 13.1422 35.0096 13.0111C34.999 12.7406 34.906 12.6021 34.7312 12.5957Z" fill="#C01C20"/>
<path d="M34.2618 13.5614C34.1887 13.3795 34.1273 13.2286 34.0764 13.1076C33.9538 12.867 33.8116 12.7813 33.6504 12.8502C33.4909 12.9389 33.4697 13.1049 33.5866 13.3483C33.6331 13.4605 33.7036 13.592 33.7976 13.7429C33.8917 13.8938 34.0156 14.077 34.1695 14.2917C34.2412 14.4121 34.3163 14.4477 34.3938 14.3993C34.4795 14.3677 34.5008 14.2843 34.4579 14.1499C34.3901 13.9341 34.325 13.7382 34.2615 13.5614" fill="#C01C20"/>
<path d="M33.6284 13.9263C33.4861 13.7926 33.3672 13.682 33.2708 13.5946C33.0591 13.4289 32.8943 13.4118 32.777 13.5435C32.6697 13.6917 32.7199 13.8514 32.9276 14.0221C33.0166 14.1038 33.1356 14.1929 33.2838 14.2893C33.4323 14.3858 33.6211 14.4987 33.85 14.6278C33.9656 14.7061 34.0484 14.7064 34.0982 14.6295C34.1627 14.5643 34.1474 14.4796 34.052 14.3761C33.9005 14.2093 33.7593 14.0598 33.6284 13.9267" fill="#C01C20"/>
<path d="M33.7781 14.7538C33.5714 14.6677 33.381 14.5921 33.2062 14.5276C33.0218 14.4671 32.8676 14.4176 32.7433 14.3797C32.4825 14.3202 32.326 14.375 32.2744 14.5444C32.2392 14.7248 32.3512 14.8479 32.6111 14.9141C32.7257 14.95 32.8706 14.98 33.0454 15.0042C33.2202 15.0283 33.4385 15.0499 33.7 15.069C33.8372 15.0905 33.9127 15.0556 33.9256 14.9642C33.9572 14.8778 33.9077 14.8075 33.7781 14.7541" fill="#C01C20"/>
<path d="M29.0414 14.5078L29.9931 17.5822H29.2278L29.0404 16.9493H28.0578L27.8674 17.5822H27.2427L28.217 14.5078H29.0414ZM28.2283 16.3819H28.8723L28.5529 15.303L28.2283 16.3819Z" fill="#C01C20"/>
<path d="M30.9816 15.83V17.5825H30.3357V15.83H30.0751V15.3074H30.3357C30.3386 15.0731 30.3553 14.9024 30.3858 14.7948C30.4164 14.6876 30.4945 14.5922 30.6208 14.5088C30.747 14.4255 30.9185 14.3838 31.1352 14.3838C31.2242 14.3838 31.3266 14.3922 31.4425 14.4087V14.9266C31.3475 14.9192 31.2687 14.9155 31.2066 14.9155C31.1162 14.9155 31.0561 14.9394 31.0262 14.9874C30.9963 15.0355 30.9816 15.1135 30.9816 15.2217V15.3074H31.389V15.83H30.9816Z" fill="#C01C20"/>
<path d="M32.6483 15.2607C32.9909 15.2607 33.2581 15.374 33.4502 15.6009C33.6422 15.8278 33.7383 16.1114 33.7383 16.4522C33.7383 16.793 33.6382 17.069 33.4389 17.2938C33.2395 17.5184 32.9743 17.6306 32.6437 17.6306C32.313 17.6306 32.0671 17.5194 31.8751 17.2972C31.683 17.075 31.587 16.7897 31.587 16.4411C31.587 16.1991 31.6305 15.9941 31.7172 15.8251C31.804 15.6563 31.9229 15.5199 32.0741 15.4164C32.2253 15.3125 32.4167 15.2607 32.648 15.2607M32.6663 15.6997C32.5403 15.6997 32.4456 15.7488 32.3822 15.8472C32.3184 15.9454 32.2865 16.1413 32.2865 16.4341C32.2865 16.703 32.317 16.8956 32.3778 17.0129C32.4383 17.1298 32.533 17.1883 32.662 17.1883C32.7743 17.1883 32.8657 17.1386 32.9351 17.0387C33.0049 16.9389 33.0394 16.7483 33.0394 16.4677C33.0394 16.1689 33.0089 15.9662 32.9474 15.8597C32.8859 15.7531 32.7925 15.6997 32.6666 15.6997" fill="#C01C20"/>
<path d="M34.8003 17.5833H34.1566V15.3085H34.7644V15.732C34.8581 15.4164 35.0196 15.2588 35.2499 15.2588C35.2824 15.2588 35.3226 15.2611 35.3698 15.2655V15.928C35.2349 15.928 35.1296 15.9488 35.0548 15.9908C34.9797 16.0328 34.9186 16.1085 34.8711 16.217C34.8235 16.3259 34.7999 16.4728 34.7999 16.6573V17.583L34.8003 17.5833Z" fill="#C01C20"/>
<path d="M37.7603 16.5584H36.3128C36.3115 16.5988 36.3105 16.6344 36.3105 16.6643C36.3105 16.8263 36.353 16.9487 36.4388 17.0313C36.5242 17.114 36.6262 17.1554 36.7448 17.1554C36.9661 17.1554 37.0987 17.036 37.1432 16.7971L37.7447 16.8421C37.5769 17.3678 37.2363 17.6303 36.7226 17.6303C36.4983 17.6303 36.3082 17.5849 36.1513 17.4942C35.9945 17.4031 35.8656 17.2707 35.7635 17.0965C35.6619 16.9224 35.611 16.7137 35.611 16.4704C35.611 16.1087 35.713 15.8163 35.9174 15.5942C36.1214 15.372 36.3839 15.2607 36.7046 15.2607C36.994 15.2607 37.2423 15.3639 37.4496 15.5703C37.6566 15.7767 37.7603 16.106 37.7603 16.5581M36.3105 16.1686H37.11C37.0894 15.8563 36.9625 15.7 36.7292 15.7C36.4796 15.7 36.3401 15.8563 36.3105 16.1686Z" fill="#C01C20"/>
</svg>
