<svg width="65" height="64" viewBox="0 0 65 64" fill="none" xmlns="http://www.w3.org/2000/svg">
<path d="M53.8776 6.04004H11.4154V60.846H53.8776V6.04004Z" stroke="#C01C20" stroke-width="1.75174" stroke-miterlimit="10"/>
<path d="M52.7093 58.2471V59.7002H12.5833V58.2471H52.7093Z" fill="white" stroke="#C01C20" stroke-width="2.33566"/>
<path d="M11.4154 42.9717H53.8776" stroke="#C01C20" stroke-width="1.33333" stroke-miterlimit="10"/>
<path d="M11.4154 31.4072H53.8776" stroke="#C01C20" stroke-width="1.33333" stroke-miterlimit="10"/>
<path d="M11.4154 19.6748H53.8776" stroke="#C01C20" stroke-width="1.33333" stroke-miterlimit="10"/>
<path d="M32.6458 12.2891C33.5381 12.2891 34.2912 12.518 34.7835 12.8271C35.2915 13.1462 35.3782 13.4393 35.3782 13.5703C35.3782 13.7013 35.2914 13.9945 34.7835 14.3135C34.2912 14.6226 33.5381 14.8516 32.6458 14.8516C31.7538 14.8515 31.0014 14.6225 30.5091 14.3135C30.001 13.9945 29.9134 13.7013 29.9134 13.5703C29.9134 13.4393 30.001 13.1462 30.5091 12.8271C31.0014 12.5181 31.7538 12.2891 32.6458 12.2891Z" fill="white" stroke="#C01C20" stroke-width="2.33566"/>
<rect x="12.5578" y="7.31268" width="40.2177" height="49.2991" stroke="#C01C20" stroke-width="3.95934"/>
</svg>
