<svg width="65" height="64" viewBox="0 0 65 64" fill="none" xmlns="http://www.w3.org/2000/svg">
<path d="M48.3693 5.33301C50.1374 5.33301 51.8331 6.03539 53.0834 7.28563C54.3336 8.53587 55.036 10.2316 55.036 11.9997V47.113C55.036 48.8811 54.3336 50.5768 53.0834 51.8271C51.8331 53.0773 50.1374 53.7797 48.3693 53.7797H16.2987C14.5305 53.7797 12.8349 53.0773 11.5846 51.8271C10.3344 50.5768 9.63199 48.8811 9.63199 47.113V11.9997C9.63199 10.2316 10.3344 8.53587 11.5846 7.28563C12.8349 6.03539 14.5305 5.33301 16.2987 5.33301H48.3693ZM48.3693 9.33301H16.2987C15.6259 9.33279 14.9779 9.58688 14.4846 10.0443C13.9913 10.5018 13.6891 11.1288 13.6387 11.7997L13.632 11.9997V47.113C13.6318 47.7858 13.8859 48.4338 14.3433 48.9271C14.8008 49.4204 15.4278 49.7226 16.0987 49.773L16.2987 49.7797H48.3693C49.0419 49.7796 49.6895 49.5253 50.1825 49.0679C50.6756 48.6105 50.9775 47.9837 51.028 47.313L51.036 47.113V11.9997C51.0362 11.3267 50.7819 10.6785 50.3242 10.1852C49.8664 9.69184 49.2391 9.38981 48.568 9.33967L48.368 9.33301H48.3693Z" fill="#C01C20"/>
<path d="M27.9707 32.7881H36.696C39.0649 32.7881 40.2493 33.9725 40.2493 36.3414V37.4841C40.2493 39.853 39.0649 41.0374 36.696 41.0374H27.9707C25.6018 41.0374 24.4173 39.853 24.4173 37.4841V36.3414C24.4173 33.9725 25.6018 32.7881 27.9707 32.7881Z" fill="#C01C20"/>
<path d="M21.7667 50.3691C22.2638 50.3692 22.7432 50.5544 23.1112 50.8886C23.4793 51.2229 23.7096 51.6823 23.7573 52.1771L23.7667 52.3691V55.6318C23.7664 56.1454 23.5686 56.6393 23.2141 57.011C22.8597 57.3827 22.3758 57.6038 21.8628 57.6285C21.3497 57.6532 20.8469 57.4795 20.4584 57.1436C20.0699 56.8076 19.8256 56.335 19.776 55.8238L19.7667 55.6318V52.3691C19.7667 51.8387 19.9774 51.33 20.3524 50.9549C20.7275 50.5799 21.2362 50.3691 21.7667 50.3691ZM30.8453 50.3691C31.3427 50.3688 31.8224 50.5539 32.1907 50.8882C32.559 51.2225 32.7896 51.682 32.8373 52.1771L32.8467 52.3691V55.6318C32.8502 56.148 32.6541 56.6456 32.2993 57.0204C31.9444 57.3953 31.4584 57.6185 30.9428 57.6433C30.4272 57.6681 29.922 57.4926 29.5328 57.1535C29.1436 56.8144 28.9006 56.3379 28.8547 55.8238L28.8467 55.6318V52.3691C28.8467 51.8387 29.0574 51.33 29.4324 50.9549C29.8075 50.5799 30.3162 50.3691 30.8467 50.3691H30.8453ZM41.9773 50.7798C42.7373 50.78 43.4688 51.0687 44.0242 51.5874C44.5795 52.1061 44.9173 52.8163 44.9693 53.5745L44.9773 53.7798V58.8331C44.9784 59.6118 44.6767 60.3604 44.1359 60.9207C43.5951 61.481 42.8576 61.8091 42.0794 61.8356C41.3011 61.862 40.5431 61.5849 39.9655 61.0627C39.3878 60.5405 39.0359 59.8141 38.984 59.0371L38.9773 58.8318V53.7798C38.9773 52.9842 39.2934 52.2211 39.856 51.6585C40.4186 51.0959 41.1817 50.7798 41.9773 50.7798Z" fill="#C01C20"/>
<path d="M36.5891 20.2041C36.8711 20.1661 37.1277 20.1268 37.3603 20.0858C37.6014 20.0337 37.8019 19.9889 37.9623 19.9513C38.2869 19.8489 38.4245 19.6883 38.3747 19.4689C38.3 19.2477 38.0995 19.1845 37.7728 19.2784C37.6237 19.3126 37.4456 19.3728 37.2383 19.4586C37.0311 19.5444 36.7769 19.661 36.4772 19.8079C36.3126 19.8723 36.2518 19.959 36.2949 20.0683C36.3147 20.1836 36.4135 20.2293 36.5891 20.2045" fill="#C01C20"/>
<path d="M37.0494 19.2036C37.2465 19.0533 37.409 18.9269 37.5386 18.8245C37.7898 18.593 37.8476 18.3885 37.7108 18.2109C37.5509 18.0422 37.3427 18.0704 37.0852 18.2959C36.9645 18.3906 36.8282 18.5209 36.6762 18.6874C36.5242 18.8539 36.3427 19.0678 36.1325 19.3291C36.0101 19.4581 35.9911 19.5631 36.0755 19.6434C36.1418 19.7395 36.2503 19.7386 36.3993 19.6408C36.6386 19.4858 36.8552 19.3407 37.0485 19.2036" fill="#C01C20"/>
<path d="M36.6849 17.9838C36.8162 17.6666 36.7824 17.4565 36.5844 17.354C36.3691 17.2695 36.1919 17.3844 36.053 17.6982C35.9833 17.8357 35.9141 18.0124 35.8457 18.2281C35.7773 18.4441 35.7026 18.7157 35.6211 19.0419C35.5641 19.2109 35.5907 19.3143 35.7009 19.351C35.8014 19.4095 35.8989 19.3625 35.9934 19.2101C36.1458 18.9671 36.2809 18.743 36.3995 18.5363C36.5152 18.316 36.6102 18.132 36.6849 17.9834" fill="#C01C20"/>
<path d="M35.2045 17.0596C34.974 17.0749 34.8613 17.2547 34.8668 17.5988C34.8609 17.753 34.8718 17.943 34.9001 18.1676C34.9284 18.3926 34.974 18.6705 35.0369 19.0015C35.0559 19.1791 35.123 19.2611 35.2383 19.247C35.3535 19.2572 35.4227 19.1727 35.4443 18.9946C35.481 18.7094 35.5097 18.4485 35.5308 18.2103C35.5435 17.9613 35.5523 17.7538 35.5582 17.5873C35.5447 17.2436 35.4265 17.0677 35.2045 17.0596Z" fill="#C01C20"/>
<path d="M34.6082 18.2862C34.5153 18.0553 34.4372 17.8635 34.3726 17.7098C34.2169 17.4041 34.0362 17.2952 33.8314 17.3828C33.6288 17.4955 33.6018 17.7064 33.7504 18.0155C33.8095 18.1582 33.899 18.3251 34.0185 18.5168C34.1379 18.7085 34.2954 18.9412 34.4908 19.2141C34.582 19.3669 34.6774 19.4122 34.7758 19.3507C34.8847 19.3106 34.9117 19.2047 34.8572 19.0339C34.7711 18.7598 34.6884 18.5108 34.6078 18.2862" fill="#C01C20"/>
<path d="M33.8033 18.7488C33.6227 18.5789 33.4715 18.4384 33.3491 18.3274C33.0802 18.1169 32.8708 18.0951 32.7218 18.2625C32.5855 18.4508 32.6492 18.6536 32.913 18.8705C33.0262 18.9743 33.1773 19.0874 33.3656 19.2099C33.5543 19.3325 33.794 19.4759 34.0849 19.6399C34.2318 19.7394 34.3369 19.7398 34.4002 19.642C34.4821 19.5592 34.4627 19.4516 34.3416 19.3201C34.1491 19.1083 33.9697 18.9183 33.8033 18.7492" fill="#C01C20"/>
<path d="M33.9935 19.8006C33.7309 19.6913 33.4891 19.5952 33.267 19.5133C33.0327 19.4364 32.8369 19.3736 32.679 19.3254C32.3476 19.2498 32.1488 19.3194 32.0833 19.5346C32.0386 19.7639 32.1809 19.9202 32.511 20.0043C32.6566 20.05 32.8407 20.088 33.0627 20.1187C33.2847 20.1495 33.5621 20.1768 33.8943 20.2011C34.0687 20.2285 34.1645 20.184 34.1809 20.0679C34.221 19.9582 34.1581 19.8689 33.9935 19.801" fill="#C01C20"/>
<path d="M27.9759 19.4893L29.1849 23.3948H28.2128L27.9747 22.5908H26.7264L26.4845 23.3948H25.6909L26.9286 19.4893H27.9759ZM26.943 21.8701H27.7611L27.3554 20.4995L26.943 21.8701Z" fill="#C01C20"/>
<path d="M30.4408 21.1683V23.3946H29.6202V21.1683H29.2892V20.5044H29.6202C29.624 20.2068 29.6451 19.9899 29.6839 19.8532C29.7228 19.717 29.822 19.5958 29.9824 19.4899C30.1428 19.384 30.3606 19.3311 30.6359 19.3311C30.749 19.3311 30.879 19.3417 31.0263 19.3627V20.0206C30.9056 20.0112 30.8056 20.0065 30.7266 20.0065C30.6118 20.0065 30.5354 20.0368 30.4974 20.0979C30.4594 20.159 30.4408 20.258 30.4408 20.3955V20.5044H30.9584V21.1683H30.4408Z" fill="#C01C20"/>
<path d="M32.5581 20.4453C32.9934 20.4453 33.3328 20.5892 33.5768 20.8774C33.8208 21.1656 33.9427 21.526 33.9427 21.9589C33.9427 22.3919 33.8157 22.7424 33.5624 23.0281C33.3091 23.3133 32.9723 23.4559 32.5522 23.4559C32.1322 23.4559 31.8198 23.3146 31.5758 23.0324C31.3318 22.7501 31.2098 22.3876 31.2098 21.9448C31.2098 21.6374 31.2651 21.377 31.3753 21.1622C31.4855 20.9479 31.6366 20.7745 31.8287 20.643C32.0208 20.5111 32.2639 20.4453 32.5577 20.4453M32.5809 21.0029C32.4209 21.0029 32.3006 21.0653 32.22 21.1904C32.139 21.3151 32.0984 21.564 32.0984 21.9359C32.0984 22.2775 32.1373 22.5221 32.2145 22.6711C32.2914 22.8197 32.4117 22.894 32.5754 22.894C32.7181 22.894 32.8342 22.8308 32.9224 22.704C33.0111 22.5772 33.055 22.3351 33.055 21.9786C33.055 21.599 33.0162 21.3415 32.9381 21.2062C32.86 21.0708 32.7413 21.0029 32.5814 21.0029" fill="#C01C20"/>
<path d="M35.2923 23.3953H34.4746V20.5056H35.2467V21.0436C35.3657 20.6426 35.5709 20.4424 35.8634 20.4424C35.9048 20.4424 35.9559 20.4454 36.0158 20.4509V21.2925C35.8444 21.2925 35.7106 21.319 35.6156 21.3723C35.5202 21.4257 35.4426 21.5218 35.3822 21.6597C35.3218 21.798 35.2919 21.9846 35.2919 22.219V23.3949L35.2923 23.3953Z" fill="#C01C20"/>
<path d="M39.0525 22.0929H37.2137C37.212 22.1441 37.2107 22.1894 37.2107 22.2274C37.2107 22.4332 37.2647 22.5886 37.3737 22.6936C37.4821 22.7987 37.6117 22.8512 37.7624 22.8512C38.0436 22.8512 38.212 22.6996 38.2686 22.396L39.0327 22.4533C38.8195 23.121 38.3868 23.4545 37.7342 23.4545C37.4492 23.4545 37.2078 23.3969 37.0085 23.2816C36.8093 23.1659 36.6455 22.9976 36.5159 22.7765C36.3867 22.5553 36.3221 22.2901 36.3221 21.981C36.3221 21.5216 36.4517 21.1501 36.7113 20.8679C36.9705 20.5857 37.304 20.4443 37.7114 20.4443C38.079 20.4443 38.3944 20.5754 38.6578 20.8376C38.9208 21.0997 39.0525 21.5182 39.0525 22.0925M37.2107 21.5976H38.2264C38.2002 21.2009 38.0389 21.0024 37.7426 21.0024C37.4256 21.0024 37.2483 21.2009 37.2107 21.5976Z" fill="#C01C20"/>
</svg>
